<svg xmlns="http://www.w3.org/2000/svg" width="833" height="96" viewBox="0 0 833 96">
  <defs>
    <style>
      .cls-1, .cls-2 {
        fill-rule: evenodd;
      }

      .cls-2 {
        fill: #3f3f3f;
      }
    </style>
  </defs>
  <path id="LEDAMINT_copy" data-name="LEDAMINT copy" class="cls-1" d="M19.345,52.5H45.567V47.476H25.261V6.012H19.345V52.5Zm103.85,0h27.5V47.493H129.111v-16.9h17.612V25.585H129.111V11.019H149.99V6.012H123.2V52.5Zm106.737,0h11.917c14.015,0,21.661-8.634,21.661-23.429,0-14.752-7.646-23.059-21.922-23.059H229.932V52.5Zm5.916-4.851V10.863h5.283c10.883,0,16.278,6.492,16.278,18.208,0,11.76-5.395,18.579-16.278,18.579h-5.283Zm100.2,4.851h6l8.222-25.964c1.679-5.189,3.162-10.266,4.6-15.683h0.284c1.482,5.374,2.965,10.494,4.644,15.683L367.923,52.5h6.232L358.438,6.012h-6.676Zm8.268-14.153h21.405v-4.72H344.313v4.72ZM450.082,52.5h5.383V26.956c0-4.118-.4-10.183-0.8-14.268h0.283l3.6,11.21,8.714,23.969h4.319L480.259,23.9l3.656-11.21H484.2c-0.4,4.086-.848,10.151-0.848,14.268V52.5h5.525V6.012h-7.419L472.7,30.869c-1.1,3.194-1.974,6.214-2.988,9.669H469.43c-1.015-3.455-2.029-6.475-3.13-9.669L457.545,6.012h-7.463V52.5ZM571,52.5h5.916V6.012H571V52.5Zm88.046,0h5.643V28.189c0-4.913-.4-9.922-0.8-14.574h0.283c1.526,3.409,3.281,6.874,5.036,9.99l16.512,28.9h6.448V6.012h-5.644V30.159c0,4.826.4,9.945,0.718,14.739H686.95c-1.526-3.409-3.194-6.873-4.949-9.99l-16.512-28.9h-6.448V52.5Zm124.924,0h5.916V11.036h14.071V6.012H769.893v5.024h14.072V52.5Z"/>
  <path id="store_copy" data-name="store copy" class="cls-2" d="M24.805,91.584c5.541,0,8.492-2.927,8.492-6.668,0-3.436-2.539-5.253-5.706-6.29-2.623-.848-3.843-1.353-3.843-2.534,0-.963.745-1.651,2.362-1.651A7.488,7.488,0,0,1,30.6,75.97l2.6-3.443a11.179,11.179,0,0,0-7.286-2.618c-4.771,0-7.9,2.623-7.9,6.472,0,3.211,2.564,5.065,5.51,6.148,2.231,0.833,4.039,1.382,4.039,2.744,0,1.083-.789,1.778-2.612,1.778a8.653,8.653,0,0,1-5.485-2l-2.6,3.443A11.816,11.816,0,0,0,24.805,91.584Zm30.325-.037a12.062,12.062,0,0,0,4.605-.852L58.743,86.41a5.214,5.214,0,0,1-1.962.323c-1.609,0-2.665-.933-2.665-3.28V75.208h4.952v-4.8H54.116V64.088H49.042l-0.723,6.324-3.167.232v4.564h2.824v8.315C47.976,88.313,50.006,91.547,55.13,91.547Zm26.936,0.037c5.231,0,10.071-3.971,10.071-10.83S87.3,69.909,82.065,69.909s-10.07,3.971-10.07,10.845S76.834,91.584,82.065,91.584Zm0-4.944c-2.534,0-3.793-2.308-3.793-5.886s1.259-5.9,3.793-5.9,3.793,2.323,3.793,5.9S84.6,86.64,82.065,86.64Zm25.089,4.444h6.126V79.1c1.1-2.818,3-3.823,4.554-3.823a7.821,7.821,0,0,1,2.079.25l1.172-5.2a5.745,5.745,0,0,0-2.466-.417c-2.123,0-4.383,1.353-5.874,4.113h-0.152l-0.441-3.613h-5V91.083Zm36.279,0.5a13.332,13.332,0,0,0,7.328-2.307l-1.994-3.737a8.713,8.713,0,0,1-4.517,1.324c-2.747,0-5.441-1.43-5.534-6.124-0.094-4.727,2.127-6.124,4.134-6.124,2.423,0,3.384,1.6,3.384,3.771h-8.592l0.047,4.227h13.548a13.387,13.387,0,0,0,.274-2.78c0-5.621-2.881-9.919-8.791-9.919-4.974,0-9.781,4.112-9.781,10.826C132.939,87.62,137.5,91.584,143.433,91.584Z"/>
</svg>
