<svg width="1093" height="176" viewBox="0 0 1093 176" fill="none" xmlns="http://www.w3.org/2000/svg">
<path d="M66.1174 0C29.6573 0 0 29.6573 0 66.1174V176H109.883C146.343 176 176 146.343 176 109.883V0H66.1174ZM152.814 109.874C152.814 133.555 133.555 152.814 109.874 152.814H43.5627L104.432 71.4382L23.1784 132.356V66.1174C23.1784 42.4451 42.4369 23.1784 66.1174 23.1784H152.814V109.874Z" fill="#90F5C5"/>
<path d="M352 122.827V142.154H297.867C292.521 142.154 287.514 140.918 282.913 138.584C276.214 135.185 270.733 129.624 267.519 122.792C265.218 118.158 264 113.043 264 107.619V33.8461H283.082V109.473C283.995 116.27 289.341 121.694 296.04 122.621L352 122.792V122.827Z" fill="#0A3029"/>
<path d="M518.888 34.0178C548.811 34.0178 573.128 58.1587 573.128 87.9999C573.128 101.324 568.313 113.514 560.265 122.958C559.336 124.057 558.235 125.121 557.169 126.22C547.401 136.11 533.919 142.154 519.06 142.154H464.821V33.8461H519.06L518.888 33.9835V34.0178ZM553.764 88.1717C553.764 68.9757 538.115 53.3511 518.888 53.3511H484.013V122.992H518.888C538.115 122.992 553.764 107.368 553.764 88.1717Z" fill="#0A3029"/>
<path d="M814.564 33.8461V142.154H795.231V73.1309L776.207 87.6909L760.41 99.9159L744.614 87.6909L725.59 73.1309V142.154H706.256V33.8461L725.59 48.7152L760.41 75.466L795.231 48.7152L814.564 33.8461Z" fill="#90F5C5"/>
<path d="M828.103 142.154V33.8461H848.41V142.154H828.103Z" fill="#90F5C5"/>
<path d="M970.256 33.9832V142.154L950.923 127.304L881.282 73.6984V142.154H861.949V34.292L881.282 49.1423L950.923 102.747V33.8461L970.256 33.9832Z" fill="#90F5C5"/>
<path d="M1092.1 33.8461V53.1794H1048.56V142.154H1029.6V53.1794H986.051V33.8461H1092.1Z" fill="#90F5C5"/>
<path d="M383.049 100.56C397.865 100.492 422.442 100.389 426.765 100.389L426.66 80.8962L383.049 81.1021V53.3045H453.504V33.8461H363.282V142.154C363.282 142.154 447.263 142.154 453.538 142.154V122.661H383.083V100.56H383.049Z" fill="#0A3029"/>
<path d="M673.26 125.372C670.514 133.197 654.831 134.638 649.82 135.324C642.202 136.388 584.41 142.154 584.41 142.154V74.5473C584.41 52.069 602.633 33.8461 625.111 33.8461H692.718V142.085C692.718 142.085 684.928 142.12 673.26 142.154V125.407V125.372ZM673.26 53.3044H626.347C613.958 53.3044 603.903 63.3596 603.903 75.7484V121.083L656.787 114.356C666.224 113.155 673.294 105.125 673.294 95.6186V53.2701L673.26 53.3044Z" fill="#0A3029"/>
</svg>
